<svg width="20" height="24" viewBox="0 0 20 24" fill="none" xmlns="http://www.w3.org/2000/svg">
<path d="M12.25 1H3.25C2.65326 1 2.08097 1.23178 1.65901 1.64437C1.23705 2.05695 1 2.61652 1 3.2V20.8C1 21.3835 1.23705 21.9431 1.65901 22.3556C2.08097 22.7682 2.65326 23 3.25 23H16.75C17.3467 23 17.919 22.7682 18.341 22.3556C18.7629 21.9431 19 21.3835 19 20.8V7.6L12.25 1Z" fill="white"/>
<path d="M12.25 1V7.6H19" fill="white"/>
<path d="M12.25 1H3.25C2.65326 1 2.08097 1.23178 1.65901 1.64436C1.23705 2.05695 1 2.61652 1 3.2V20.8C1 21.3835 1.23705 21.9431 1.65901 22.3556C2.08097 22.7682 2.65326 23 3.25 23H16.75C17.3467 23 17.919 22.7682 18.341 22.3556C18.7629 21.9431 19 21.3835 19 20.8V7.6M12.25 1L19 7.6M12.25 1V7.6H19" stroke="#FF0505" stroke-width="1.5" stroke-linecap="round" stroke-linejoin="round"/>
<path d="M3.87891 20.6365V16.5701H5.35654C5.79945 16.5701 6.16982 16.6618 6.46763 16.845C6.76545 17.0245 6.98882 17.2689 7.13772 17.5781C7.28663 17.8836 7.36109 18.2234 7.36109 18.5976C7.36109 19.01 7.279 19.3689 7.11482 19.6743C6.95063 19.9798 6.71772 20.2165 6.41609 20.3845C6.11445 20.5525 5.76127 20.6365 5.35654 20.6365H3.87891ZM6.565 18.5976C6.565 18.3341 6.51727 18.1031 6.42182 17.9046C6.32636 17.7022 6.18891 17.5457 6.00945 17.435C5.83 17.3204 5.61236 17.2631 5.35654 17.2631H4.66927V19.9435H5.35654C5.61618 19.9435 5.83572 19.8862 6.01518 19.7717C6.19463 19.6533 6.33018 19.493 6.42182 19.2906C6.51727 19.0844 6.565 18.8534 6.565 18.5976Z" fill="#272727"/>
<path d="M9.71397 20.6651C9.41615 20.6651 9.14506 20.6079 8.90069 20.4933C8.66015 20.3788 8.45206 20.2241 8.27642 20.0294C8.1046 19.8309 7.97097 19.6094 7.87551 19.365C7.78006 19.1169 7.73233 18.863 7.73233 18.6033C7.73233 18.3322 7.78197 18.0745 7.88124 17.8301C7.98051 17.582 8.11988 17.3624 8.29933 17.1715C8.47879 16.9768 8.68879 16.824 8.92933 16.7133C9.1737 16.5988 9.44097 16.5415 9.73115 16.5415C10.0251 16.5415 10.2924 16.6007 10.533 16.719C10.7773 16.8374 10.9854 16.9959 11.1572 17.1944C11.3329 17.393 11.4665 17.6163 11.5581 17.8645C11.6536 18.1089 11.7013 18.359 11.7013 18.6148C11.7013 18.882 11.6517 19.1398 11.5524 19.388C11.4531 19.6323 11.3138 19.8519 11.1343 20.0466C10.9587 20.2375 10.7487 20.3883 10.5043 20.499C10.2638 20.6098 10.0003 20.6651 9.71397 20.6651ZM8.53415 18.6033C8.53415 18.84 8.57997 19.0615 8.6716 19.2677C8.76706 19.4739 8.9026 19.6419 9.07824 19.7717C9.25769 19.9015 9.47151 19.9664 9.7197 19.9664C9.97551 19.9664 10.1912 19.8996 10.3669 19.766C10.5425 19.6323 10.6761 19.4605 10.7678 19.2505C10.8594 19.0405 10.9052 18.8248 10.9052 18.6033C10.9052 18.3666 10.8575 18.1451 10.7621 17.939C10.6666 17.7328 10.5291 17.5667 10.3497 17.4407C10.1741 17.3109 9.96406 17.246 9.7197 17.246C9.46388 17.246 9.24815 17.3128 9.07251 17.4464C8.89688 17.58 8.76324 17.7519 8.6716 17.9619C8.57997 18.168 8.53415 18.3819 8.53415 18.6033Z" fill="#272727"/>
<path d="M12.0613 18.5747C12.0613 18.3265 12.1053 18.0821 12.1931 17.8416C12.2847 17.601 12.4164 17.3834 12.5883 17.1887C12.7601 16.994 12.9701 16.8393 13.2183 16.7248C13.4664 16.6064 13.749 16.5472 14.0659 16.5472C14.4363 16.5472 14.7589 16.6293 15.0338 16.7935C15.3087 16.9577 15.513 17.1715 15.6466 17.435L15.0395 17.853C14.9708 17.7003 14.8811 17.58 14.7703 17.4922C14.6596 17.4044 14.5393 17.3414 14.4095 17.3032C14.2835 17.265 14.1613 17.246 14.043 17.246C13.8444 17.246 13.6707 17.286 13.5218 17.3662C13.3767 17.4464 13.2545 17.5514 13.1553 17.6812C13.056 17.811 12.9815 17.9561 12.9319 18.1165C12.8861 18.2769 12.8632 18.4372 12.8632 18.5976C12.8632 18.8381 12.9128 19.0634 13.0121 19.2734C13.1113 19.4796 13.2507 19.6476 13.4302 19.7774C13.6096 19.9072 13.8177 19.9721 14.0544 19.9721C14.1766 19.9721 14.3026 19.9511 14.4324 19.9091C14.5661 19.8671 14.6883 19.8003 14.799 19.7087C14.9097 19.617 14.9956 19.4987 15.0567 19.3536L15.7039 19.7259C15.6199 19.9282 15.4882 20.1 15.3087 20.2413C15.1293 20.3788 14.9269 20.4857 14.7016 20.562C14.4763 20.6346 14.253 20.6709 14.0315 20.6709C13.7413 20.6709 13.476 20.6117 13.2354 20.4933C12.9987 20.3711 12.7925 20.2108 12.6169 20.0122C12.4413 19.8099 12.3038 19.5846 12.2045 19.3364C12.1091 19.0844 12.0613 18.8305 12.0613 18.5747Z" fill="#272727"/>
</svg>
