<svg width="30" height="31" viewBox="0 0 30 31" fill="none" xmlns="http://www.w3.org/2000/svg">
<path d="M15.2998 12.6272V18.4363H23.3725C23.018 20.3045 21.9543 21.8864 20.3588 22.95L25.227 26.7273C28.0633 24.1092 29.6997 20.2637 29.6997 15.6956C29.6997 14.632 29.6043 13.6091 29.427 12.6274L15.2998 12.6272Z" fill="#4285F4"/>
<path d="M6.89338 18.2096L5.79542 19.0501L1.909 22.0773C4.37717 26.9727 9.43589 30.3546 15.2995 30.3546C19.3494 30.3546 22.7448 29.0182 25.2267 26.7273L20.3585 22.95C19.0221 23.85 17.3176 24.3955 15.2995 24.3955C11.3995 24.3955 8.08596 21.7637 6.89951 18.2182L6.89338 18.2096Z" fill="#34A853"/>
<path d="M1.90902 8.63184C0.886351 10.6499 0.300049 12.9272 0.300049 15.3545C0.300049 17.7817 0.886351 20.059 1.90902 22.0771C1.90902 22.0907 6.90002 18.2044 6.90002 18.2044C6.60002 17.3044 6.4227 16.3499 6.4227 15.3543C6.4227 14.3587 6.60002 13.4042 6.90002 12.5043L1.90902 8.63184Z" fill="#FBBC05"/>
<path d="M15.2998 6.32728C17.5089 6.32728 19.4725 7.09089 21.0407 8.56364L25.3361 4.26824C22.7315 1.84101 19.3498 0.354553 15.2998 0.354553C9.4362 0.354553 4.37717 3.72273 1.909 8.63184L6.89984 12.5046C8.08613 8.95907 11.3998 6.32728 15.2998 6.32728Z" fill="#EA4335"/>
</svg>
