<svg width="21" height="21" viewBox="0 0 21 21" fill="none" xmlns="http://www.w3.org/2000/svg">
<path d="M9.24219 15.7112H11.2422V9.71118H9.24219V15.7112ZM10.2422 7.71118C10.5255 7.71118 10.763 7.61535 10.9547 7.42368C11.1464 7.23202 11.2422 6.99451 11.2422 6.71118C11.2422 6.42785 11.1464 6.19035 10.9547 5.99868C10.763 5.80701 10.5255 5.71118 10.2422 5.71118C9.95885 5.71118 9.72135 5.80701 9.52969 5.99868C9.33802 6.19035 9.24219 6.42785 9.24219 6.71118C9.24219 6.99451 9.33802 7.23202 9.52969 7.42368C9.72135 7.61535 9.95885 7.71118 10.2422 7.71118ZM10.2422 20.7112C8.85885 20.7112 7.55885 20.4487 6.34219 19.9237C5.12552 19.3987 4.06719 18.6862 3.16719 17.7862C2.26719 16.8862 1.55469 15.8278 1.02969 14.6112C0.504687 13.3945 0.242188 12.0945 0.242188 10.7112C0.242188 9.32785 0.504687 8.02785 1.02969 6.81118C1.55469 5.59451 2.26719 4.53618 3.16719 3.63618C4.06719 2.73618 5.12552 2.02368 6.34219 1.49868C7.55885 0.973682 8.85885 0.711182 10.2422 0.711182C11.6255 0.711182 12.9255 0.973682 14.1422 1.49868C15.3589 2.02368 16.4172 2.73618 17.3172 3.63618C18.2172 4.53618 18.9297 5.59451 19.4547 6.81118C19.9797 8.02785 20.2422 9.32785 20.2422 10.7112C20.2422 12.0945 19.9797 13.3945 19.4547 14.6112C18.9297 15.8278 18.2172 16.8862 17.3172 17.7862C16.4172 18.6862 15.3589 19.3987 14.1422 19.9237C12.9255 20.4487 11.6255 20.7112 10.2422 20.7112ZM10.2422 18.7112C12.4755 18.7112 14.3672 17.9362 15.9172 16.3862C17.4672 14.8362 18.2422 12.9445 18.2422 10.7112C18.2422 8.47785 17.4672 6.58618 15.9172 5.03618C14.3672 3.48618 12.4755 2.71118 10.2422 2.71118C8.00885 2.71118 6.11719 3.48618 4.56719 5.03618C3.01719 6.58618 2.24219 8.47785 2.24219 10.7112C2.24219 12.9445 3.01719 14.8362 4.56719 16.3862C6.11719 17.9362 8.00885 18.7112 10.2422 18.7112Z" fill="#4EC4CC"/>
</svg>
