<svg width="64" height="66" viewBox="0 0 64 66" fill="none" xmlns="http://www.w3.org/2000/svg">
<g clip-path="url(#clip0_153_199)">
<mask id="mask0_153_199" style="mask-type:luminance" maskUnits="userSpaceOnUse" x="0" y="0" width="64" height="66">
<path d="M64 0H0V66H64V0Z" fill="white"/>
</mask>
<g mask="url(#mask0_153_199)">
<path fill-rule="evenodd" clip-rule="evenodd" d="M2.42681 0.314877C2.06346 0.465054 1.39458 0.987208 0.940401 1.47504C0.210742 2.25893 0.114621 2.65269 0.114621 4.85484C0.114621 6.86887 0.225606 7.41808 0.692667 7.71547C1.76519 8.3977 2.41491 7.58642 2.52788 5.42321C2.5837 4.35909 2.78751 3.29762 2.9814 3.0646C3.25952 2.72926 6.85134 2.64048 20.112 2.64048H36.8906L36.9999 6.76094L37.1096 10.8811L38.1884 11.9594L39.2675 13.0373L43.3842 13.1466L47.5009 13.2558L47.5904 19.8772C47.6697 25.7654 47.7436 26.5388 48.2576 26.8625C48.6791 27.1279 48.9922 27.1279 49.4137 26.8625C49.9323 26.5358 50.001 25.7219 50.0806 18.9527L50.1698 11.4069L44.4689 5.70343L38.7681 0L20.9279 0.0207937C11.1157 0.0323457 2.79015 0.1647 2.42681 0.314877ZM43.0327 10.4939C41.4624 10.5543 40.3407 10.4461 40.051 10.2058C39.7223 9.93314 39.5869 9.04066 39.5869 7.14513V4.46966L42.5686 7.43327L45.55 10.3969L43.0327 10.4939ZM8.27762 8.31321C7.74516 8.84526 7.7696 9.7318 8.32915 10.1959C8.65154 10.4632 11.9794 10.5457 19.9367 10.4837C30.1459 10.4041 31.123 10.348 31.4566 9.81927C31.7225 9.39811 31.7225 9.08522 31.4566 8.66406C31.123 8.1353 30.1436 8.07919 19.8851 7.99965C11.445 7.9343 8.5792 8.01186 8.27762 8.31321ZM0.29299 11.0411C-0.220645 11.6593 -0.0412866 12.5386 0.692667 13.0004C1.8372 13.7206 3.12608 12.0977 2.24844 11.0411C1.73844 10.4269 0.802992 10.4269 0.29299 11.0411ZM0.313799 16.297C0.0369974 16.6304 -0.0399656 22.9959 0.0254361 40.22L0.114621 63.6889L1.19441 64.7679L2.2742 65.8469H25.0532H47.8322L48.912 64.7685L49.9918 63.6906V59.6903C49.9918 56.2401 49.9121 55.6401 49.4137 55.3242C48.9926 55.0575 48.6788 55.0569 48.2576 55.3216C47.779 55.6226 47.6634 56.2725 47.5848 59.0968C47.5326 60.9729 47.3284 62.7024 47.1312 62.9397C46.6288 63.5447 3.59281 63.5793 2.98834 62.9753C2.68775 62.675 2.59196 57.0343 2.59196 39.6071C2.59196 22.18 2.49617 16.5393 2.19559 16.2389C1.6661 15.7098 0.778548 15.7372 0.313799 16.297ZM8.2763 16.236C7.74582 16.766 7.76993 17.6536 8.3275 18.116C8.65253 18.3856 13.3535 18.4658 25.22 18.4038C40.4655 18.3246 41.6887 18.2764 42.0266 17.7407C42.2925 17.3195 42.2925 17.0066 42.0266 16.5855C41.6887 16.0498 40.4629 16.0016 25.1688 15.9224C12.6159 15.8574 8.58019 15.9323 8.2763 16.236ZM8.2763 24.1574C7.74582 24.6875 7.76993 25.575 8.3275 26.0374C8.65253 26.3071 13.3535 26.3873 25.22 26.3252C40.4655 26.246 41.6887 26.1978 42.0266 25.6621C42.2925 25.241 42.2925 24.9281 42.0266 24.5069C41.6887 23.9712 40.4629 23.923 25.1688 23.8438C12.6159 23.7788 8.58019 23.8537 8.2763 24.1574ZM8.27828 32.0768C7.74483 32.6099 7.76927 33.4961 8.33014 33.9611C8.65055 34.2268 11.4219 34.3113 17.7909 34.2489C25.953 34.1694 26.8326 34.107 27.1626 33.5835C27.4285 33.1624 27.4285 32.8495 27.1626 32.4283C26.8322 31.9049 25.951 31.8425 17.7391 31.7633C10.97 31.6976 8.57854 31.7768 8.27828 32.0768ZM8.27333 40.0032C8.05532 40.221 7.87696 40.6369 7.87696 40.9274C7.87696 42.1608 8.45599 42.2476 16.6847 42.2476C24.3615 42.2476 24.7146 42.2199 25.0532 41.5875C25.3042 41.1185 25.3042 40.7363 25.0532 40.2672C24.7146 39.6349 24.3615 39.6071 16.6847 39.6071C10.8914 39.6071 8.55971 39.717 8.27333 40.0032ZM8.27861 47.9193C7.74483 48.4527 7.76927 49.3386 8.33014 49.804C8.65055 50.0697 11.3789 50.1542 17.6258 50.0921C25.6306 50.0123 26.5026 49.9492 26.8322 49.4264C27.0981 49.0052 27.0981 48.6923 26.8322 48.2712C26.5023 47.748 25.6283 47.6853 17.5739 47.6058C10.9337 47.5404 8.57821 47.62 8.27861 47.9193ZM8.2763 55.8431C7.74582 56.3732 7.76993 57.2607 8.3275 57.7231C8.65253 57.9928 13.3535 58.073 25.22 58.0109C40.4655 57.9317 41.6887 57.8835 42.0266 57.3478C42.2925 56.9267 42.2925 56.6138 42.0266 56.1926C41.6887 55.6569 40.4629 55.6087 25.1688 55.5295C12.6159 55.4645 8.58019 55.5394 8.2763 55.8431Z" fill="#4EC4CC"/>
<path fill-rule="evenodd" clip-rule="evenodd" d="M41.325 31.3344C39.7817 31.8219 38.2612 32.6573 37.5655 33.3997C37.0572 33.9425 37.0029 34.1466 37.2471 34.6008C37.555 35.174 38.6732 35.3566 38.968 34.8817C39.0587 34.7354 39.7442 34.2955 40.4914 33.9044C41.6759 33.2843 42.1511 33.1931 44.2098 33.191C46.1803 33.1892 46.7832 33.2931 47.861 33.8216C52.1236 35.9114 53.7847 40.9589 51.6266 45.2634C49.7912 48.924 44.6939 50.6776 40.9196 48.9464C38.2641 47.7288 36.2597 45.0703 36.0048 42.4283C35.8695 41.0231 35.4872 40.5516 34.5866 40.6788C34.0235 40.7585 33.9837 40.8808 34.0039 42.4622C34.0736 47.937 40.1365 52.6459 45.8079 51.6305C46.6597 51.4782 48.177 50.9385 49.1796 50.4315L51.0025 49.5096L52.1288 50.6107C52.8765 51.3416 53.1673 51.7993 52.994 51.972C52.8503 52.1151 52.7328 52.6632 52.7328 53.1898C52.7328 54.0605 53.0016 54.4178 55.6831 57.1114C57.3059 58.7414 58.9284 60.2845 59.289 60.5405C61.7247 62.2698 65.2748 58.7336 63.5387 56.3073C63.2817 55.9481 61.7326 54.3319 60.0962 52.7154C57.3922 50.0444 57.0334 49.7766 56.1593 49.7766C55.6306 49.7766 55.0804 49.8936 54.9367 50.0368C54.7634 50.2095 54.3052 49.9211 53.5736 49.1784L52.4716 48.0598L53.3729 46.3686C56.544 40.4199 53.6058 33.2362 47.2434 31.383C45.5593 30.8924 42.7962 30.8697 41.325 31.3344ZM34.9105 36.8333C34.2137 37.6695 35.237 38.9539 36.1457 38.3839C37.0536 37.8142 36.7302 36.454 35.6867 36.454C35.4337 36.454 35.0843 36.6246 34.9105 36.8333ZM59.1248 54.707C61.4371 57.0173 61.9356 57.6487 61.795 58.0897C61.7001 58.3877 61.3765 58.7093 61.0759 58.8044C60.6301 58.9454 59.9963 58.4457 57.6256 56.0842L54.7214 53.1914L55.3464 52.5289C55.6899 52.1645 56.0411 51.8664 56.1265 51.8664C56.212 51.8664 57.5613 53.1446 59.1248 54.707Z" fill="#1B1B1B"/>
</g>
</g>
<defs>
<clipPath id="clip0_153_199">
<rect width="64" height="66" fill="white"/>
</clipPath>
</defs>
</svg>
