<svg width="23" height="23" viewBox="0 0 23 23" fill="none" xmlns="http://www.w3.org/2000/svg">
<path d="M9.44718 0.985983C10.5918 -0.121304 12.4083 -0.121304 13.5529 0.985983C14.2074 1.61918 15.1175 1.91489 16.0192 1.78735C17.5961 1.56432 19.0657 2.63204 19.3408 4.20063C19.4982 5.09762 20.0607 5.87181 20.8651 6.29864C22.2719 7.04505 22.8333 8.77266 22.1339 10.2034C21.7339 11.0216 21.7339 11.9785 22.1339 12.7967C22.8333 14.2274 22.2719 15.955 20.8651 16.7015C20.0607 17.1283 19.4982 17.9025 19.3408 18.7995C19.0657 20.3681 17.5961 21.4358 16.0192 21.2127C15.1175 21.0852 14.2074 21.3809 13.5529 22.0141C12.4083 23.1214 10.5918 23.1214 9.44718 22.0141C8.79264 21.3809 7.88253 21.0852 6.98082 21.2127C5.40397 21.4358 3.93438 20.3681 3.65923 18.7995C3.50188 17.9025 2.9394 17.1283 2.13493 16.7015C0.72814 15.955 0.166806 14.2274 0.866198 12.7967C1.26614 11.9785 1.26614 11.0216 0.866198 10.2034C0.166806 8.77266 0.72814 7.04505 2.13493 6.29864C2.9394 5.87181 3.50188 5.09762 3.65923 4.20063C3.93438 2.63204 5.40397 1.56432 6.98082 1.78735C7.88253 1.91489 8.79264 1.61918 9.44718 0.985983Z" fill="#FF0505"/>
<path d="M9.23251 7.56076C9.96431 8.04521 13.3752 12.0162 15.4465 14.0135C16.7413 15.262 17 15.8571 17 15.8571C12.3394 17.2399 6.6173 8.14362 6.12551 7.56076C5.34869 6.64008 8.39817 7.00843 9.23251 7.56076Z" fill="white"/>
<path d="M13.7675 7.56076C13.0357 8.04521 9.62483 12.0162 7.5535 14.0135C6.25871 15.262 6 15.8571 6 15.8571C10.6606 17.2399 16.3827 8.14362 16.8745 7.56076C17.6513 6.64008 14.6018 7.00843 13.7675 7.56076Z" fill="white"/>
</svg>
