<svg width="23" height="23" viewBox="0 0 23 23" fill="none" xmlns="http://www.w3.org/2000/svg">
<path d="M9.44693 0.985983C10.5915 -0.121304 12.408 -0.121304 13.5526 0.985983C14.2072 1.61918 15.1173 1.91489 16.019 1.78735C17.5959 1.56432 19.0654 2.63204 19.3406 4.20063C19.4979 5.09762 20.0604 5.87181 20.8649 6.29864C22.2717 7.04505 22.833 8.77266 22.1336 10.2034C21.7337 11.0216 21.7337 11.9785 22.1336 12.7967C22.833 14.2274 22.2717 15.955 20.8649 16.7015C20.0604 17.1283 19.4979 17.9025 19.3406 18.7995C19.0654 20.3681 17.5959 21.4358 16.019 21.2127C15.1173 21.0852 14.2072 21.3809 13.5526 22.0141C12.408 23.1214 10.5915 23.1214 9.44693 22.0141C8.7924 21.3809 7.88229 21.0852 6.98058 21.2127C5.40373 21.4358 3.93414 20.3681 3.65898 18.7995C3.50164 17.9025 2.93916 17.1283 2.13469 16.7015C0.727896 15.955 0.166561 14.2274 0.865954 12.7967C1.2659 11.9785 1.2659 11.0216 0.865954 10.2034C0.166562 8.77266 0.727896 7.04505 2.13469 6.29864C2.93916 5.87181 3.50164 5.09762 3.65898 4.20063C3.93414 2.63204 5.40373 1.56432 6.98058 1.78735C7.88229 1.91489 8.7924 1.61918 9.44693 0.985983Z" fill="#01D468"/>
<path d="M10.8016 13.9922C10.4357 13.4361 9.59387 12.1012 9.15467 11.2105C8.60573 10.0956 8.22121 10.0122 6.95875 10.6523C6.58215 10.8432 6.40973 11.2089 6.95871 12.3222C7.70951 13.7716 8.60574 15.5764 9.70366 16.2188C12.9977 17.8888 17.0419 6.90295 17.3895 6.19902C17.9386 5.08709 15.7833 5.53195 15.1936 6.19902C14.6763 6.78411 12.2656 11.58 10.8016 13.9922Z" fill="white"/>
</svg>
